<svg width="43" height="40" xmlns="http://www.w3.org/2000/svg" fill="none">

 <g>
  <title>Layer 1</title>
  <path id="svg_1" fill="#108CB9" d="m21.5155,0.50171l4.5786,2.52282l-0.1483,0.26791l-4.5786,-2.52283l0.1483,-0.2679z" clip-rule="evenodd" fill-rule="evenodd"/>
  <path id="svg_2" fill="#108CB9" d="m21.4553,1.22418c0.3388,0 0.6135,-0.27404 0.6135,-0.61209c0,-0.33805 -0.2747,-0.61209 -0.6135,-0.61209c-0.3388,0 -0.6135,0.27404 -0.6135,0.61209c0,0.33805 0.2747,0.61209 0.6135,0.61209z"/>
  <path id="svg_3" fill="#108CB9" d="m26.0197,3.77056c0.3388,0 0.6135,-0.27404 0.6135,-0.61208c0,-0.33805 -0.2747,-0.61209 -0.6135,-0.61209c-0.3388,0 -0.6135,0.27404 -0.6135,0.61209c0,0.33804 0.2747,0.61208 0.6135,0.61208z"/>
  <path id="svg_4" fill="#108CB9" d="m21.5165,0.76904l-4.5796,2.55649l-0.1498,-0.26709l4.5797,-2.55649l0.1497,0.26709z" clip-rule="evenodd" fill-rule="evenodd"/>
  <path id="svg_5" fill="#108CB9" d="m16.8615,3.77056c0.3388,0 0.6135,-0.27404 0.6135,-0.61208c0,-0.33805 -0.2747,-0.61209 -0.6135,-0.61209c-0.3388,0 -0.6135,0.27404 -0.6135,0.61209c0,0.33804 0.2747,0.61208 0.6135,0.61208z"/>
  <path id="svg_6" fill="#108CB9" d="m21.3672,39.2306l4.5786,-2.5238l0.1483,0.2679l-4.5786,2.5238l-0.1483,-0.2679z" clip-rule="evenodd" fill-rule="evenodd"/>
  <path id="svg_7" fill="#108CB9" d="m21.4553,40.0001c0.3388,0 0.6135,-0.2741 0.6135,-0.6121c0,-0.3381 -0.2747,-0.6121 -0.6135,-0.6121c-0.3388,0 -0.6135,0.274 -0.6135,0.6121c0,0.338 0.2747,0.6121 0.6135,0.6121z"/>
  <path id="svg_8" fill="#108CB9" d="m26.0197,37.4527c0.3388,0 0.6135,-0.274 0.6135,-0.6121c0,-0.338 -0.2747,-0.6121 -0.6135,-0.6121c-0.3388,0 -0.6135,0.2741 -0.6135,0.6121c0,0.3381 0.2747,0.6121 0.6135,0.6121z"/>
  <path id="svg_9" fill="#108CB9" d="m21.3668,39.4979l-4.5797,-2.5565l0.1498,-0.2671l4.5796,2.5565l-0.1497,0.2671z" clip-rule="evenodd" fill-rule="evenodd"/>
  <path id="svg_10" fill="#108CB9" d="m16.8615,37.4527c0.3388,0 0.6135,-0.274 0.6135,-0.6121c0,-0.338 -0.2747,-0.6121 -0.6135,-0.6121c-0.3388,0 -0.6135,0.2741 -0.6135,0.6121c0,0.3381 0.2747,0.6121 0.6135,0.6121z"/>
  <path id="svg_11" fill="#108CB9" d="m4.53125,10.2267l4.47331,-2.70644l0.15905,0.26169l-4.47331,2.70645l-0.15905,-0.2617z" clip-rule="evenodd" fill-rule="evenodd"/>
  <path id="svg_12" fill="#108CB9" d="m4.59786,10.9451c0.33881,0 0.61348,-0.274 0.61348,-0.6121c0,-0.33801 -0.27467,-0.61205 -0.61348,-0.61205c-0.33882,0 -0.61348,0.27404 -0.61348,0.61205c0,0.3381 0.27466,0.6121 0.61348,0.6121z"/>
  <path id="svg_13" fill="#108CB9" d="m1.06172,8.91925c0.33882,0 0.61349,-0.27405 0.61349,-0.61209c0,-0.33805 -0.27467,-0.61209 -0.61349,-0.61209c-0.33881,0 -0.61348,0.27404 -0.61348,0.61209c0,0.33804 0.27467,0.61209 0.61348,0.61209z"/>
  <path id="svg_14" fill="#108CB9" d="m9.08419,8.26324c0.33881,0 0.61348,-0.27404 0.61348,-0.61209c0,-0.33805 -0.27467,-0.61209 -0.61348,-0.61209c-0.33882,0 -0.61349,0.27404 -0.61349,0.61209c0,0.33805 0.27467,0.61209 0.61349,0.61209z"/>
  <path id="svg_15" fill="#108CB9" d="m4.76446,10.3594l-0.0593,5.2344l-0.30672,-0.0035l0.0593,-5.2343l0.30672,0.0034z" clip-rule="evenodd" fill-rule="evenodd"/>
  <path id="svg_16" fill="#108CB9" d="m4.52266,16.1878c0.33882,0 0.61348,-0.274 0.61348,-0.6121c0,-0.338 -0.27466,-0.6121 -0.61348,-0.6121c-0.33882,0 -0.61348,0.2741 -0.61348,0.6121c0,0.3381 0.27466,0.6121 0.61348,0.6121z"/>
  <path id="svg_17" fill="#108CB9" d="m1.0297,8.12964l3.65738,2.09536l-0.15275,0.2654l-3.65738,-2.09536l0.15275,-0.2654z" clip-rule="evenodd" fill-rule="evenodd"/>
  <path id="svg_18" fill="#108CB9" d="m38.1182,29.6399l0.0879,-5.218l0.3067,0.0051l-0.0879,5.2181l-0.3067,-0.0052z" clip-rule="evenodd" fill-rule="evenodd"/>
  <path id="svg_19" fill="#108CB9" d="m38.299,30.2545c0.3388,0 0.6135,-0.2741 0.6135,-0.6121c0,-0.3381 -0.2747,-0.6121 -0.6135,-0.6121c-0.3388,0 -0.6135,0.274 -0.6135,0.6121c0,0.338 0.2747,0.6121 0.6135,0.6121z"/>
  <path id="svg_20" fill="#108CB9" d="m41.8342,32.2796c0.3388,0 0.6135,-0.274 0.6135,-0.6121c0,-0.338 -0.2747,-0.6121 -0.6135,-0.6121c-0.3388,0 -0.6135,0.2741 -0.6135,0.6121c0,0.3381 0.2747,0.6121 0.6135,0.6121z"/>
  <path id="svg_21" fill="#108CB9" d="m38.3596,25.0364c0.3388,0 0.6135,-0.274 0.6135,-0.6121c0,-0.338 -0.2747,-0.612 -0.6135,-0.612c-0.3388,0 -0.6135,0.274 -0.6135,0.612c0,0.3381 0.2747,0.6121 0.6135,0.6121z"/>
  <path id="svg_22" fill="#108CB9" d="m38.3499,29.7738l-4.5019,2.6891l-0.1576,-0.2626l4.502,-2.6891l0.1575,0.2626z" clip-rule="evenodd" fill-rule="evenodd"/>
  <path id="svg_23" fill="#108CB9" d="m33.7981,32.961c0.3388,0 0.6134,-0.274 0.6134,-0.6121c0,-0.338 -0.2746,-0.6121 -0.6134,-0.6121c-0.3389,0 -0.6135,0.2741 -0.6135,0.6121c0,0.3381 0.2746,0.6121 0.6135,0.6121z"/>
  <path id="svg_24" fill="#108CB9" d="m41.8527,31.8706l-3.6574,-2.0954l0.1528,-0.2654l3.6573,2.0954l-0.1527,0.2654z" clip-rule="evenodd" fill-rule="evenodd"/>
  <path id="svg_25" fill="#108CB9" d="m4.49599,29.7128l-0.10634,-5.2181l0.30668,-0.0062l0.10634,5.2181l-0.30668,0.0062z" clip-rule="evenodd" fill-rule="evenodd"/>
  <path id="svg_26" fill="#108CB9" d="m4.62129,30.3218c0.33882,0 0.61349,-0.274 0.61349,-0.6121c0,-0.338 -0.27467,-0.612 -0.61349,-0.612c-0.33881,0 -0.61348,0.274 -0.61348,0.612c0,0.3381 0.27467,0.6121 0.61348,0.6121z"/>
  <path id="svg_27" fill="#108CB9" d="m1.09395,32.3602c0.33882,0 0.61348,-0.2741 0.61348,-0.6121c0,-0.3381 -0.27466,-0.6121 -0.61348,-0.6121c-0.33882,0 -0.61348,0.274 -0.61348,0.6121c0,0.338 0.27466,0.6121 0.61348,0.6121z"/>
  <path id="svg_28" fill="#108CB9" d="m4.54317,25.1038c0.33882,0 0.61348,-0.274 0.61348,-0.6121c0,-0.338 -0.27466,-0.6121 -0.61348,-0.6121c-0.33882,0 -0.61348,0.2741 -0.61348,0.6121c0,0.3381 0.27466,0.6121 0.61348,0.6121z"/>
  <path id="svg_29" fill="#108CB9" d="m4.72693,29.5781l4.51114,2.6728l-0.15662,0.2632l-4.51114,-2.6728l0.15662,-0.2632z" clip-rule="evenodd" fill-rule="evenodd"/>
  <path id="svg_30" fill="#108CB9" d="m9.13204,33.012c0.33881,0 0.61348,-0.274 0.61348,-0.6121c0,-0.338 -0.27467,-0.6121 -0.61348,-0.6121c-0.33882,0 -0.61349,0.2741 -0.61349,0.6121c0,0.3381 0.27467,0.6121 0.61349,0.6121z"/>
  <path id="svg_31" fill="#108CB9" d="m0.92285,31.686l3.6492,-2.1086l0.15373,0.2648l-3.6492,2.1087l-0.15373,-0.2649z" clip-rule="evenodd" fill-rule="evenodd"/>
  <path id="svg_32" fill="#108CB9" d="m38.1603,10.4326l-4.4826,-2.68912l0.1581,-0.26228l4.4825,2.6891l-0.158,0.2623z" clip-rule="evenodd" fill-rule="evenodd"/>
  <path id="svg_33" fill="#108CB9" d="m38.2531,10.8899c0.3388,0 0.6135,-0.274 0.6135,-0.612c0,-0.33809 -0.2747,-0.61213 -0.6135,-0.61213c-0.3388,0 -0.6135,0.27404 -0.6135,0.61213c0,0.338 0.2747,0.612 0.6135,0.612z"/>
  <path id="svg_34" fill="#108CB9" d="m41.7815,8.85186c0.3388,0 0.6134,-0.27404 0.6134,-0.61209c0,-0.33804 -0.2746,-0.61208 -0.6134,-0.61208c-0.3389,0 -0.6135,0.27404 -0.6135,0.61208c0,0.33805 0.2746,0.61209 0.6135,0.61209z"/>
  <path id="svg_35" fill="#108CB9" d="m33.757,8.22442c0.3389,0 0.6135,-0.27404 0.6135,-0.61209c0,-0.33804 -0.2746,-0.61209 -0.6135,-0.61209c-0.3388,0 -0.6134,0.27405 -0.6134,0.61209c0,0.33805 0.2746,0.61209 0.6134,0.61209z"/>
  <path id="svg_36" fill="#108CB9" d="m38.3926,10.2991l0.0778,5.2354l-0.3068,0.0045l-0.0777,-5.2354l0.3067,-0.0045z" clip-rule="evenodd" fill-rule="evenodd"/>
  <path id="svg_37" fill="#108CB9" d="m38.3459,16.1316c0.3388,0 0.6135,-0.274 0.6135,-0.612c0,-0.3381 -0.2747,-0.6121 -0.6135,-0.6121c-0.3388,0 -0.6135,0.274 -0.6135,0.6121c0,0.338 0.2747,0.612 0.6135,0.612z"/>
  <path id="svg_38" fill="#108CB9" d="m41.9659,8.32615l-3.6491,2.10765l-0.1537,-0.2649l3.6492,-2.10762l0.1536,0.26487z" clip-rule="evenodd" fill-rule="evenodd"/>
  <path id="svg_39" fill="#9589EA" d="m26.0825,11.3073l-4.6594,-2.68401l-4.6594,2.68401l4.6594,2.684l4.6594,-2.684z"/>
  <path id="svg_40" fill="#6559A2" d="m21.4231,19.3594l0,-5.368l-4.6594,-2.684l0,5.368l4.6594,2.684z"/>
  <path id="svg_41" fill="#6559A2" d="m21.4229,19.3594l0,-5.368l4.6594,-2.684l0,5.368l-4.6594,2.684z"/>
  <path id="svg_42" fill="#1C2135" d="m21.4228,8.50586l-4.7617,2.74314l0,5.4854l4.7617,2.7432l4.7616,-2.7432l0,-5.4854l-4.7616,-2.74314zm4.4549,2.80134l-4.4549,2.5667l-4.4549,-2.5657l4.4549,-2.56669l4.4549,2.56669l0,-0.001zm-9.0121,0.1765l4.4549,2.5656l0,5.1324l-4.4549,-2.5667l0,-5.1323l0,0.001zm4.6594,7.698l0,-5.1324l4.4549,-2.5666l0,5.1323l-4.4549,2.5667z"/>
  <path id="svg_43" fill="#6559A2" d="m20.9702,20.2846l-4.6594,-2.684l-4.6594,2.684l4.6594,2.684l4.6594,-2.684z"/>
  <path id="svg_44" fill="#9589EA" d="m16.3108,28.3367l0,-5.368l-4.6594,-2.684l0,5.368l4.6594,2.684z"/>
  <path id="svg_45" fill="#6559A2" d="m16.3105,28.3367l0,-5.368l4.6595,-2.684l0,5.368l-4.6595,2.684z"/>
  <path id="svg_46" fill="#1C2135" d="m16.3105,17.4832l-4.7617,2.7431l0,5.4854l4.7617,2.7431l4.7616,-2.7431l0,-5.4854l-4.7616,-2.7431zm4.4549,2.8013l-4.4549,2.5667l-4.4549,-2.5657l4.4549,-2.5667l4.4549,2.5667l0,-0.001zm-9.0121,0.1765l4.4549,2.5656l0,5.1324l-4.4549,-2.5667l0,-5.1324l0,0.0011zm4.6594,7.698l0,-5.1324l4.4549,-2.5667l0,5.1324l-4.4549,2.5667z"/>
  <path id="svg_47" fill="#6559A2" d="m31.1948,20.2846l-4.6594,-2.684l-4.6594,2.684l4.6594,2.684l4.6594,-2.684z"/>
  <path id="svg_48" fill="#6559A2" d="m26.5354,28.3367l0,-5.368l-4.6594,-2.684l0,5.368l4.6594,2.684z"/>
  <path id="svg_49" fill="#9589EA" d="m26.5352,28.3367l0,-5.368l4.6594,-2.684l0,5.368l-4.6594,2.684z"/>
  <path id="svg_50" fill="#1C2135" d="m26.5361,17.4832l-4.7617,2.7431l0,5.4854l4.7617,2.7431l4.7616,-2.7431l0,-5.4854l-4.7616,-2.7431zm4.4549,2.8013l-4.4549,2.5667l-4.4549,-2.5657l4.4549,-2.5667l4.4549,2.5667l0,-0.001zm-9.0121,0.1765l4.4549,2.5656l0,5.1324l-4.4549,-2.5657l0,-5.1323zm4.6594,7.699l0,-5.1323l4.4549,-2.5667l0,5.1323l-4.4549,2.5667z"/>
  <path id="svg_51" fill="#9589EA" d="m31.1948,14.3676l-4.6594,-2.684l-4.6594,2.684l4.6594,2.684l4.6594,-2.684z"/>
  <path id="svg_52" fill="#6559A2" d="m26.5354,22.4197l0,-5.368l-4.6594,-2.684l0,5.368l4.6594,2.684z"/>
  <path id="svg_53" fill="#9589EA" d="m26.5352,22.4197l0,-5.368l4.6594,-2.684l0,5.368l-4.6594,2.684z"/>
  <path id="svg_54" fill="#1C2135" d="m26.5361,11.5664l-4.7617,2.7432l0,5.4853l4.7617,2.7432l4.7616,-2.7432l0,-5.4853l-4.7616,-2.7432zm4.4549,2.8013l-4.4549,2.5667l-4.4549,-2.5656l4.4549,-2.5667l4.4549,2.5667l0,-0.0011zm-9.0121,0.1765l4.4549,2.5657l0,5.1324l-4.4549,-2.5657l0,-5.1324zm4.6594,7.6991l0,-5.1324l4.4549,-2.5667l0,5.1324l-4.4549,2.5667z"/>
  <path id="svg_55" fill="#9589EA" d="m20.9702,14.3676l-4.6594,-2.684l-4.6594,2.684l4.6594,2.684l4.6594,-2.684z"/>
  <path id="svg_56" fill="#9589EA" d="m16.3108,22.4197l0,-5.368l-4.6594,-2.684l0,5.368l4.6594,2.684z"/>
  <path id="svg_57" fill="#6559A2" d="m16.3105,22.4197l0,-5.368l4.6595,-2.684l0,5.368l-4.6595,2.684z"/>
  <path id="svg_58" fill="#1C2135" d="m16.3105,11.5664l-4.7617,2.7432l0,5.4853l4.7617,2.7432l4.7616,-2.7432l0,-5.4853l-4.7616,-2.7432zm4.4549,2.8013l-4.4549,2.5667l-4.4549,-2.5656l4.4549,-2.5667l4.4549,2.5667l0,-0.0011zm-9.0121,0.1765l4.4549,2.5657l0,5.1324l-4.4549,-2.5667l0,-5.1324l0,0.001zm4.6594,7.6981l0,-5.1324l4.4549,-2.5667l0,5.1324l-4.4549,2.5667z"/>
  <path id="svg_59" fill="#6559A2" d="m26.0825,23.2428l-4.6594,-2.684l-4.6594,2.684l4.6594,2.6841l4.6594,-2.6841z"/>
  <path id="svg_60" fill="#9589EA" d="m21.4231,31.2949l0,-5.368l-4.6594,-2.684l0,5.368l4.6594,2.684z"/>
  <path id="svg_61" fill="#9589EA" d="m21.4229,31.2949l0,-5.368l4.6594,-2.684l0,5.368l-4.6594,2.684z"/>
  <path id="svg_62" fill="#1C2135" d="m21.4228,20.4417l-4.7617,2.7431l0,5.4854l4.7617,2.7431l4.7616,-2.7431l0,-5.4854l-4.7616,-2.7431zm4.4549,2.8013l-4.4549,2.5667l-4.4549,-2.5657l4.4549,-2.5667l4.4549,2.5667l0,-0.001zm-9.0121,0.1765l4.4549,2.5656l0,5.1324l-4.4549,-2.5657l0,-5.1323zm4.6594,7.699l0,-5.1323l4.4549,-2.5667l0,5.1323l-4.4549,2.5667z"/>
  <path id="svg_63" fill="#9589EA" d="m26.0825,17.4282l-4.6594,-2.6841l-4.6594,2.6841l4.6594,2.684l4.6594,-2.684z"/>
  <path id="svg_64" fill="#9589EA" d="m21.4231,25.4803l0,-5.3681l-4.6594,-2.684l0,5.368l4.6594,2.6841z"/>
  <path id="svg_65" fill="#9589EA" d="m21.4229,25.4803l0,-5.3681l4.6594,-2.684l0,5.368l-4.6594,2.6841z"/>
  <path id="svg_66" fill="#1C2135" d="m21.4228,25.5984l-4.7617,-2.7432l0,-5.4853l4.7617,-2.7432l4.7616,2.7432l0,5.4853l-4.7616,2.7432zm-4.5572,-2.8605l4.5572,2.6248l4.5571,-2.6248l0,-5.2507l-4.5571,-2.6248l-4.5572,2.6248l0,5.2497l0,0.001z"/>
  <path id="svg_67" fill="#1C2135" d="m16.8161,17.3423l-0.1022,0.1767l4.6594,2.6841l0.1022,-0.1767l-4.6594,-2.6841z"/>
  <path id="svg_68" fill="#1C2135" d="m26.0349,17.3507l-4.6599,2.6832l0.1022,0.1767l4.6599,-2.6831l-0.1022,-0.1768z"/>
  <path id="svg_69" fill="#1C2135" d="m21.5248,20.1121l-0.2045,0l0,5.368l0.2045,0l0,-5.368z"/>
  <path id="svg_70" fill="#71BEDB" d="m36.2146,11.2636l-14.5681,-8.39177l0,5.30069l9.967,5.74138l4.6011,-2.6503z"/>
  <path id="svg_71" fill="#1C2135" d="m21.851,3.2246l13.9557,8.0388l-4.1922,2.4147l-9.7635,-5.62412l0,-4.82938zm-0.2045,-0.35297l0,5.30068l9.968,5.74139l4.6012,-2.6503l-14.5692,-8.39279l0,0.00102z"/>
  <path id="svg_72" fill="#71BEDB" d="m11.2408,13.93l9.9967,-5.75773l0,-5.30069l-14.59785,8.40802l4.60115,2.6504z"/>
  <path id="svg_73" fill="#1C2135" d="m21.0329,3.22455l0,4.82938l-9.7912,5.64037l-4.19209,-2.4147l13.98329,-8.05505zm0.2045,-0.35297l-14.59678,8.40802l4.60108,2.6504l9.9957,-5.75773l0,-5.30069z"/>
  <path id="svg_74" fill="#71BEDB" d="m31.8096,14.2717l0,11.5073l4.6011,2.6503l0,-16.808l-4.6011,2.6504z"/>
  <path id="svg_75" fill="#1C2135" d="m36.2062,11.9753l0,16.101l-4.1921,-2.4147l0,-11.2716l4.1921,-2.4147zm0.2045,-0.3529l-4.6011,2.6503l0,11.5063l4.6011,2.6503l0,-16.808l0,0.0011z"/>
  <path id="svg_76" fill="#71BEDB" d="m11.0728,14.3044l-4.60112,-2.6503l0,16.7426l4.60112,-2.6503l0,-11.442z"/>
  <path id="svg_77" fill="#1C2135" d="m6.67617,12.007l4.19213,2.4147l0,11.2063l-4.19213,2.4147l0,-16.0357zm-0.20449,-0.3529l0,16.7426l4.60112,-2.6503l0,-11.442l-4.60112,-2.6503z"/>
  <path id="svg_78" fill="#71BEDB" d="m6.68457,28.7456l14.55283,8.3825l0,-5.3007l-9.9517,-5.7322l-4.60113,2.6504z"/>
  <path id="svg_79" fill="#1C2135" d="m11.2857,26.3309l9.7472,5.6149l0,4.8293l-13.93934,-8.0295l4.19214,-2.4147zm0,-0.2357l-4.60113,2.6504l14.55283,8.3825l0,-5.3007l-9.9517,-5.7322z"/>
  <path id="svg_80" fill="#71BEDB" d="m21.6465,31.8275l0,5.3007l14.5242,-8.3663l-4.6011,-2.6503l-9.9231,5.7159z"/>
  <path id="svg_81" fill="#1C2135" d="m31.5696,26.3472l4.1921,2.4147l-13.9117,8.0133l0,-4.8294l9.7196,-5.5986zm0,-0.2356l-9.9241,5.7169l0,5.3007l14.5252,-8.3673l-4.6011,-2.6503z"/>
  <path id="svg_82" fill="#9589EA" d="m26.0825,17.4282l-4.6594,-2.6841l-4.6594,2.6841l4.6594,2.684l4.6594,-2.684z"/>
  <path id="svg_83" fill="#9589EA" d="m21.4231,25.4803l0,-5.3681l-4.6594,-2.684l0,5.368l4.6594,2.6841z"/>
  <path id="svg_84" fill="#9589EA" d="m21.4229,25.4803l0,-5.3681l4.6594,-2.684l0,5.368l-4.6594,2.6841z"/>
  <path id="svg_85" fill="#1C2135" d="m21.4228,14.6267l-4.7617,2.7432l0,5.4853l4.7617,2.7432l4.7616,-2.7432l0,-5.4853l-4.7616,-2.7432zm4.4549,2.8013l-4.4549,2.5667l-4.4549,-2.5656l4.4549,-2.5667l4.4549,2.5667l0,-0.0011zm-9.0121,0.1765l4.4549,2.5657l0,5.1324l-4.4549,-2.5667l0,-5.1324l0,0.001zm4.6594,7.6981l0,-5.1324l4.4549,-2.5667l0,5.1324l-4.4549,2.5667z"/>
 </g>
</svg>