<svg id="e476d5f9-30c4-445f-8351-1f846d779dfa" data-name="Layer 1" xmlns="http://www.w3.org/2000/svg" width="845.87074" height="569.98927" viewBox="0 0 845.87074 569.98927"><polygon points="760.114 287.832 752.997 294.857 762.452 319.527 775.643 292.177 797.249 168.007 764.02 167.081 760.114 287.832" fill="#9f616a"/><polygon points="705.966 547.714 687.966 547.714 673.966 388.714 708.966 388.714 705.966 547.714" fill="#9f616a"/><polygon points="773.966 547.714 755.966 547.714 741.966 388.714 776.966 388.714 773.966 547.714" fill="#9f616a"/><path d="M937.09032,733.461l-26.27966-.13983a10.60246,10.60246,0,0,1-5.18583-13.20591h0a10.60249,10.60249,0,0,1,8.18437-6.73544l4.96424-.82737,4.32555-5.50525a8.19029,8.19029,0,0,1,10.758-2.00034c4.14944,2.63357,9.90449,3.511,17,2.92223l5.52291,13.4861c1.09439,7.29591-3.90074,12.10883-11.188,13.25945h0A13.43132,13.43132,0,0,1,937.09032,733.461Z" transform="translate(-177.06463 -165.00536)" fill="#2f2e41"/><path d="M869.09032,733.461l-26.27966-.13983a10.60246,10.60246,0,0,1-5.18583-13.20591h0a10.60249,10.60249,0,0,1,8.18437-6.73544l4.96424-.82737,4.80952-6.12121a7.45937,7.45937,0,0,1,10.01669-1.55131c4.16748,2.7633,10.01393,3.69017,17.25728,3.08916l5.52291,13.4861c1.09439,7.29591-3.90074,12.10883-11.188,13.25945h0A13.43132,13.43132,0,0,1,869.09032,733.461Z" transform="translate(-177.06463 -165.00536)" fill="#2f2e41"/><circle cx="710.9656" cy="55.71363" r="27" fill="#9f616a"/><path d="M927.03023,272.719l-44,3c.15576-14.2391-.46558-27.13579-4-35l31-10C910.3279,243.25667,916.90486,257.50461,927.03023,272.719Z" transform="translate(-177.06463 -165.00536)" fill="#9f616a"/><path d="M954.03023,467.719l-113-9c15.0769-50.26016,10.35876-116.07391-5-165.41577a28.4717,28.4717,0,0,1,18.28887-26.58848L883.03023,255.719l36,4,30.356,15.178a27.71585,27.71585,0,0,1,15.31608,25.30937C953.29231,345.83844,951.91774,404.51285,954.03023,467.719Z" transform="translate(-177.06463 -165.00536)" fill="#20dbc5"/><path d="M869.03023,344.719l-51-9L822.42,301.69848a42.20258,42.20258,0,0,1,30.84455-35.34011l9.76571-2.63938Z" transform="translate(-177.06463 -165.00536)" fill="#20dbc5"/><polygon points="661.966 292.714 667.966 300.714 658.966 325.714 645.966 294.714 642.966 168.714 675.966 172.714 661.966 292.714" fill="#9f616a"/><path d="M925.03023,346.719l51-9-4.38975-34.02051a42.20256,42.20256,0,0,0-30.84455-35.34011l-9.7657-2.63938Z" transform="translate(-177.06463 -165.00536)" fill="#20dbc5"/><path d="M957.03023,558.719l-41.83858,2-12.16142-59-14.76772,55-44.23228,1-8.8417-71.06584a41.09716,41.09716,0,0,1,8.84169-30.93414v0l110,5Z" transform="translate(-177.06463 -165.00536)" fill="#2f2e41"/><path d="M890.53023,250.219l20.19008-3.82345,12.0114-20.51949a27.28013,27.28013,0,0,0-3.19387-31.95038l0,0a27.28016,27.28016,0,0,0-24.2073-8.837l-26.16686,3.73812a17.27884,17.27884,0,0,0-14.64408,19.66833l17.62513,2.99868Z" transform="translate(-177.06463 -165.00536)" fill="#2f2e41"/><ellipse cx="701.4656" cy="63.21363" rx="5" ry="6" fill="#9f616a"/><path d="M303.53023,177.219a11.01245,11.01245,0,0,0-11,11v201a11.01245,11.01245,0,0,0,11,11h5a11.01245,11.01245,0,0,0,11-11v-201a11.01245,11.01245,0,0,0-11-11Z" transform="translate(-177.06463 -165.00536)" fill="#e6e6e6"/><path d="M303.53023,181.719a6.50753,6.50753,0,0,0-6.5,6.5v201a6.50752,6.50752,0,0,0,6.5,6.5h5a6.50753,6.50753,0,0,0,6.5-6.5v-201a6.50753,6.50753,0,0,0-6.5-6.5Z" transform="translate(-177.06463 -165.00536)" fill="#fff"/><path d="M385.53023,177.219a11.01245,11.01245,0,0,0-11,11v201a11.01245,11.01245,0,0,0,11,11h5a11.01245,11.01245,0,0,0,11-11v-201a11.01245,11.01245,0,0,0-11-11Z" transform="translate(-177.06463 -165.00536)" fill="#e6e6e6"/><path d="M385.53023,181.719a6.50753,6.50753,0,0,0-6.5,6.5v201a6.50752,6.50752,0,0,0,6.5,6.5h5a6.50753,6.50753,0,0,0,6.5-6.5v-201a6.50753,6.50753,0,0,0-6.5-6.5Z" transform="translate(-177.06463 -165.00536)" fill="#fff"/><path d="M467.53023,177.219a11.01245,11.01245,0,0,0-11,11v201a11.01245,11.01245,0,0,0,11,11h5a11.01245,11.01245,0,0,0,11-11v-201a11.01245,11.01245,0,0,0-11-11Z" transform="translate(-177.06463 -165.00536)" fill="#e6e6e6"/><path d="M467.53023,181.719a6.50753,6.50753,0,0,0-6.5,6.5v201a6.50752,6.50752,0,0,0,6.5,6.5h5a6.50753,6.50753,0,0,0,6.5-6.5v-201a6.50753,6.50753,0,0,0-6.5-6.5Z" transform="translate(-177.06463 -165.00536)" fill="#fff"/><path d="M549.53023,177.219a11.01245,11.01245,0,0,0-11,11v201a11.01245,11.01245,0,0,0,11,11h5a11.01245,11.01245,0,0,0,11-11v-201a11.01245,11.01245,0,0,0-11-11Z" transform="translate(-177.06463 -165.00536)" fill="#e6e6e6"/><path d="M549.53023,181.719a6.50753,6.50753,0,0,0-6.5,6.5v201a6.50752,6.50752,0,0,0,6.5,6.5h5a6.50753,6.50753,0,0,0,6.5-6.5v-201a6.50753,6.50753,0,0,0-6.5-6.5Z" transform="translate(-177.06463 -165.00536)" fill="#fff"/><path d="M631.53023,177.219a11.01245,11.01245,0,0,0-11,11v201a11.01245,11.01245,0,0,0,11,11h5a11.01245,11.01245,0,0,0,11-11v-201a11.01245,11.01245,0,0,0-11-11Z" transform="translate(-177.06463 -165.00536)" fill="#e6e6e6"/><path d="M631.53023,181.719a6.50753,6.50753,0,0,0-6.5,6.5v201a6.50752,6.50752,0,0,0,6.5,6.5h5a6.50753,6.50753,0,0,0,6.5-6.5v-201a6.50753,6.50753,0,0,0-6.5-6.5Z" transform="translate(-177.06463 -165.00536)" fill="#fff"/><path d="M322.2878,242.2493H290.77265a10.25379,10.25379,0,0,1-10.24242-10.24243v-1.57576a10.25379,10.25379,0,0,1,10.24242-10.24242H322.2878a10.25379,10.25379,0,0,1,10.24243,10.24242v1.57576A10.25379,10.25379,0,0,1,322.2878,242.2493Z" transform="translate(-177.06463 -165.00536)" fill="#20dbc5"/><path d="M406.2878,275.2493H374.77265a10.25379,10.25379,0,0,1-10.24242-10.24243v-1.57576a10.25379,10.25379,0,0,1,10.24242-10.24242H406.2878a10.25379,10.25379,0,0,1,10.24243,10.24242v1.57576A10.25379,10.25379,0,0,1,406.2878,275.2493Z" transform="translate(-177.06463 -165.00536)" fill="#20dbc5"/><path d="M486.2878,340.2493H454.77265a10.25379,10.25379,0,0,1-10.24242-10.24243v-1.57576a10.25379,10.25379,0,0,1,10.24242-10.24242H486.2878a10.25379,10.25379,0,0,1,10.24243,10.24242v1.57576A10.25379,10.25379,0,0,1,486.2878,340.2493Z" transform="translate(-177.06463 -165.00536)" fill="#20dbc5"/><path d="M568.2878,222.2493H536.77265a10.25379,10.25379,0,0,1-10.24242-10.24243v-1.57576a10.25379,10.25379,0,0,1,10.24242-10.24242H568.2878a10.25379,10.25379,0,0,1,10.24243,10.24242v1.57576A10.25379,10.25379,0,0,1,568.2878,222.2493Z" transform="translate(-177.06463 -165.00536)" fill="#20dbc5"/><path d="M650.2878,300.2493H618.77265a10.25379,10.25379,0,0,1-10.24242-10.24243v-1.57576a10.25379,10.25379,0,0,1,10.24242-10.24242H650.2878a10.25379,10.25379,0,0,1,10.24243,10.24242v1.57576A10.25379,10.25379,0,0,1,650.2878,300.2493Z" transform="translate(-177.06463 -165.00536)" fill="#20dbc5"/><polygon points="845.475 569.989 578.074 569.989 578.074 567.804 845.871 567.804 845.475 569.989" fill="#3f3d56"/><circle cx="129.4656" cy="275.21363" r="13" fill="#e6e6e6"/><circle cx="211.4656" cy="275.21363" r="13" fill="#e6e6e6"/><circle cx="293.4656" cy="275.21363" r="13" fill="#e6e6e6"/><circle cx="375.4656" cy="275.21363" r="13" fill="#e6e6e6"/><circle cx="457.4656" cy="275.21363" r="13" fill="#e6e6e6"/><path d="M205.86092,165.00536a28.79631,28.79631,0,1,0,28.79632,28.79629A28.79629,28.79629,0,0,0,205.86092,165.00536Zm0,53.33839a24.54208,24.54208,0,1,1,24.5421-24.5421A24.54208,24.54208,0,0,1,205.86092,218.34375Z" transform="translate(-177.06463 -165.00536)" fill="#e6e6e6"/><path d="M204.26992,203.64975a1.51846,1.51846,0,0,1-1.07424-.44513L194.99111,195a1.5192,1.5192,0,0,1,2.14848-2.14847l6.95228,6.95228,12.32319-16.80442a1.51945,1.51945,0,0,1,2.45057,1.79712l-13.37042,18.23239a1.52072,1.52072,0,0,1-1.10955.61665C204.34708,203.64856,204.3082,203.64975,204.26992,203.64975Z" transform="translate(-177.06463 -165.00536)" fill="#20dbc5"/></svg>