<svg width="32" height="32" viewBox="0 0 32 32" fill="none" xmlns="http://www.w3.org/2000/svg">
<path d="M20 30.667H17.333V28H20V30.667ZM17.333 22.667H25.333V25.333H17.333V28H14.667V25.333H12V22.667H14.667V20H17.333V22.667ZM9.33301 25.333H6.66699V22.667H9.33301V25.333ZM6.66699 22.667H4V9.33301H6.66699V22.667ZM28 9.33301V22.667H25.333V9.33301H28ZM20 20H17.333V17.333H20V20ZM14.667 14.667H12V12H14.667V14.667ZM17.333 6.66699H20V9.33301H17.333V12H14.667V9.33301H6.66699V6.66699H14.667V4H17.333V6.66699ZM25.333 9.33301H22.667V6.66699H25.333V9.33301ZM14.667 4H12V1.33301H14.667V4Z" fill="#8232FF"/>
</svg>
