<svg width="24" height="24" viewBox="0 0 24 24" fill="none" xmlns="http://www.w3.org/2000/svg">
<path d="M13 23H11V21H13V23ZM11 21H9V19H11V21ZM15 21H13V19H15V21ZM9 19H7V17H9V19ZM17 19H15V17H17V19ZM7 17H5V15H7V17ZM13 17H11V15H13V17ZM19 17H17V15H19V17ZM5 15H3V13H5V15ZM21 15H19V13H21V15ZM3 13H1V11H3V13ZM13 13H11V7H13V13ZM23 13H21V11H23V13ZM5 11H3V9H5V11ZM21 11H19V9H21V11ZM7 9H5V7H7V9ZM19 9H17V7H19V9ZM9 7H7V5H9V7ZM17 7H15V5H17V7ZM11 5H9V3H11V5ZM15 5H13V3H15V5ZM13 3H11V1H13V3Z" fill="#FA7171"/>
</svg>
