<svg width="20" height="20" viewBox="0 0 20 20" fill="none" xmlns="http://www.w3.org/2000/svg">
<path d="M5.83301 15.833H4.16699V14.167H5.83301V15.833ZM15.833 15.833H14.167V14.167H15.833V15.833ZM7.5 12.5V14.167H5.83301V12.5H7.5ZM14.167 14.167H12.5V12.5H14.167V14.167ZM9.16699 12.5H7.5V10.833H9.16699V12.5ZM12.5 12.5H10.833V10.833H12.5V12.5ZM10.833 10.833H9.16699V9.16699H10.833V10.833ZM9.16699 9.16699H7.5V7.5H9.16699V9.16699ZM12.5 9.16699H10.833V7.5H12.5V9.16699ZM7.5 7.5H5.83301V5.83301H7.5V7.5ZM14.167 7.5H12.5V5.83301H14.167V7.5ZM5.83301 5.83301H4.16699V4.16699H5.83301V5.83301ZM15.833 5.83301H14.167V4.16699H15.833V5.83301Z" fill="#838289"/>
</svg>
