<svg width="82" height="82" viewBox="0 0 82 82" fill="none" xmlns="http://www.w3.org/2000/svg">
<path d="M20.9999 1H1V20.9999H20.9999V1Z" fill="url(#paint0_linear_1610_4586)" fill-opacity="0.12"/>
<path d="M21.0033 60.9998H61.0032V40.9998H21.0033V60.9998Z" fill="url(#paint1_linear_1610_4586)" fill-opacity="0.12"/>
<path d="M1 81H20.9999V61.0001H1V81Z" fill="url(#paint2_linear_1610_4586)" fill-opacity="0.12"/>
<path d="M61.0001 81H81V61.0001H61.0001V81Z" fill="url(#paint3_linear_1610_4586)" fill-opacity="0.12"/>
<path d="M81 1H61.0001V20.9999H81V1Z" fill="url(#paint4_linear_1610_4586)" fill-opacity="0.12"/>
<path d="M20.9999 1H1V20.9999H20.9999V1Z" stroke="#8232FF" stroke-dasharray="2 4"/>
<path d="M21.0033 60.9998H61.0032V40.9998H21.0033V60.9998Z" stroke="#8232FF" stroke-dasharray="2 4"/>
<path d="M1 81H20.9999V61.0001H1V81Z" stroke="#8232FF" stroke-dasharray="2 4"/>
<path d="M61.0001 81H81V61.0001H61.0001V81Z" stroke="#8232FF" stroke-dasharray="2 4"/>
<path d="M81 1H61.0001V20.9999H81V1Z" stroke="#8232FF" stroke-dasharray="2 4"/>
<defs>
<linearGradient id="paint0_linear_1610_4586" x1="1" y1="1" x2="81" y2="81.0002" gradientUnits="userSpaceOnUse">
<stop stop-color="#8232FF"/>
<stop offset="1" stop-color="#8232FF" stop-opacity="0"/>
</linearGradient>
<linearGradient id="paint1_linear_1610_4586" x1="1" y1="1" x2="81" y2="81.0002" gradientUnits="userSpaceOnUse">
<stop stop-color="#8232FF"/>
<stop offset="1" stop-color="#8232FF" stop-opacity="0"/>
</linearGradient>
<linearGradient id="paint2_linear_1610_4586" x1="1" y1="1" x2="81" y2="81.0002" gradientUnits="userSpaceOnUse">
<stop stop-color="#8232FF"/>
<stop offset="1" stop-color="#8232FF" stop-opacity="0"/>
</linearGradient>
<linearGradient id="paint3_linear_1610_4586" x1="1" y1="1" x2="81" y2="81.0002" gradientUnits="userSpaceOnUse">
<stop stop-color="#8232FF"/>
<stop offset="1" stop-color="#8232FF" stop-opacity="0"/>
</linearGradient>
<linearGradient id="paint4_linear_1610_4586" x1="1" y1="1" x2="81" y2="81.0002" gradientUnits="userSpaceOnUse">
<stop stop-color="#8232FF"/>
<stop offset="1" stop-color="#8232FF" stop-opacity="0"/>
</linearGradient>
</defs>
</svg>
