<svg width="16" height="16" viewBox="0 0 16 16" fill="none" xmlns="http://www.w3.org/2000/svg">
<path d="M12 14.667H5.33301V13.333H12V14.667ZM5.33301 13.333H4V12H5.33301V13.333ZM13.333 13.333H12V12H13.333V13.333ZM4 12H2.66699V10.667H4V12ZM14.667 12H13.333V9.33301H12V8H13.333V6.66699H14.667V12ZM2.66699 10.667H1.33301V4H2.66699V10.667ZM12 10.667H8V9.33301H12V10.667ZM8 9.33301H6.66699V8H8V9.33301ZM6.66699 8H5.33301V4H6.66699V8ZM4 4H2.66699V2.66699H4V4ZM9.33301 2.66699H8V4H6.66699V2.66699H4V1.33301H9.33301V2.66699Z" fill="white"/>
</svg>
