<svg width="16" height="16" viewBox="0 0 16 16" fill="none" xmlns="http://www.w3.org/2000/svg">
<path d="M14.6665 14.6664H13.3335V13.3333H14.6665V14.6664ZM13.3335 13.3333H12.0005V12.0003H13.3335V13.3333ZM9.3335 12.0003H4.00049V10.6664H9.3335V12.0003ZM12.0005 12.0003H10.6665V10.6664H12.0005V12.0003ZM4.00049 10.6664H2.6665V9.33334H4.00049V10.6664ZM10.6665 10.6664H9.3335V9.33334H10.6665V10.6664ZM2.6665 9.33334H1.3335V4.00034H2.6665V9.33334ZM12.0005 9.33334H10.6665V4.00034H12.0005V9.33334ZM4.00049 4.00034H2.6665V2.66635H4.00049V4.00034ZM10.6665 4.00034H9.3335V2.66635H10.6665V4.00034ZM9.3335 2.66635H4.00049V1.33334H9.3335V2.66635Z" fill="#838289"/>
</svg>
